<svg xmlns="http://www.w3.org/2000/svg" width="1200" height="330" viewBox="0 0 1200 330">
<defs>
 <linearGradient id="b" x1="0" x2="1"><stop stop-color="#1F6FEB"/><stop offset="1" stop-color="#58A6FF"/></linearGradient>
 <filter id="g"><feGaussianBlur stdDeviation="5" result="x"/><feMerge><feMergeNode in="x"/><feMergeNode in="SourceGraphic"/></feMerge></filter>
 <pattern id="grid" width="32" height="32" patternUnits="userSpaceOnUse"><path d="M32 0H0V32" fill="none" stroke="#58A6FF" stroke-opacity=".045"/></pattern>
</defs>
<rect x="5" y="5" width="1190" height="320" rx="24" fill="#0D1117" stroke="#30363D"/>
<rect x="5" y="5" width="1190" height="320" rx="24" fill="url(#grid)"/>
<g font-family="monospace">
 <text x="40" y="48" fill="#58A6FF" font-size="13">◈ DEVELOPER ACTIVITY // MAINGGA</text>
 <text x="1160" y="48" text-anchor="end" fill="#27C93F" font-size="12">● PUBLIC DATA</text>
 <line x1="40" y1="65" x2="1160" y2="65" stroke="#21262D"/>
 <text x="40" y="100" fill="#8B949E" font-size="12">PROFILE</text>
 <text x="40" y="130" fill="#FFFFFF" font-size="22">github.com/maingga</text>
 <text x="40" y="154" fill="#8B949E" font-size="12">Repositories · Contributions · Open-source activity</text>
 <text x="40" y="205" fill="#58A6FF" font-size="12">CONTRIBUTION SIGNAL</text>
 <g transform="translate(40,220)">
   <rect width="18" height="18" rx="3" fill="#161B22"/><rect x="24" width="18" height="18" rx="3" fill="#0E4429"/><rect x="48" width="18" height="18" rx="3" fill="#006D32"/><rect x="72" width="18" height="18" rx="3" fill="#26A641"/><rect x="96" width="18" height="18" rx="3" fill="#39D353"/>
   <rect x="130" width="18" height="18" rx="3" fill="#161B22"/><rect x="154" width="18" height="18" rx="3" fill="#0E4429"/><rect x="178" width="18" height="18" rx="3" fill="#006D32"/><rect x="202" width="18" height="18" rx="3" fill="#26A641"/><rect x="226" width="18" height="18" rx="3" fill="#39D353"/>
   <rect x="260" width="18" height="18" rx="3" fill="#0E4429"/><rect x="284" width="18" height="18" rx="3" fill="#006D32"/><rect x="308" width="18" height="18" rx="3" fill="#26A641"/><rect x="332" width="18" height="18" rx="3" fill="#39D353"/>
   <rect x="366" width="18" height="18" rx="3" fill="#161B22"/><rect x="390" width="18" height="18" rx="3" fill="#0E4429"/><rect x="414" width="18" height="18" rx="3" fill="#006D32"/><rect x="438" width="18" height="18" rx="3" fill="#26A641"/><rect x="462" width="18" height="18" rx="3" fill="#39D353"/>
   <rect x="496" width="18" height="18" rx="3" fill="#0E4429"/><rect x="520" width="18" height="18" rx="3" fill="#006D32"/><rect x="544" width="18" height="18" rx="3" fill="#26A641"/><rect x="568" width="18" height="18" rx="3" fill="#39D353"/>
 </g>
 <text x="40" y="275" fill="#484F58" font-size="11">LESS</text>
 <rect x="80" y="265" width="13" height="13" rx="2" fill="#161B22"/><rect x="99" y="265" width="13" height="13" rx="2" fill="#0E4429"/><rect x="118" y="265" width="13" height="13" rx="2" fill="#006D32"/><rect x="137" y="265" width="13" height="13" rx="2" fill="#26A641"/><rect x="156" y="265" width="13" height="13" rx="2" fill="#39D353"/>
 <text x="180" y="275" fill="#484F58" font-size="11">MORE</text>
 <g transform="translate(700,92)">
   <rect width="420" height="155" rx="18" fill="#111820" stroke="#21262D"/>
   <text x="25" y="30" fill="#8B949E" font-size="11">METRICS MODE</text>
   <text x="25" y="65" fill="#58A6FF" font-size="18">LIVE GITHUB PROFILE</text>
   <text x="25" y="92" fill="#8B949E" font-size="12">No external stats-card dependency</text>
   <text x="25" y="118" fill="#8B949E" font-size="12">Repository-safe visual layer</text>
   <text x="25" y="142" fill="#27C93F" font-size="11">STATUS: STABLE</text>
 </g>
</g>
</svg>